HIERARCHY
ROOT Hips
{
  OFFSET 50.5382 96.8174 1.06909
  CHANNELS 6 Xposition Yposition Zposition Zrotation Xrotation Yrotation
  JOINT spine
  {
    OFFSET 0 7.96568 0.458067
    CHANNELS 3 Zrotation Xrotation Yrotation
    JOINT spine1
    {
      OFFSET 0 10.2431 0
      CHANNELS 3 Zrotation Xrotation Yrotation
      JOINT spine2
      {
        OFFSET 0 9.81475 0
        CHANNELS 3 Zrotation Xrotation Yrotation
        JOINT Neck
        {
          OFFSET 0 25.1986 1.20138
          CHANNELS 3 Zrotation Xrotation Yrotation
          JOINT Head
          {
            OFFSET 0 7.61315 0
            CHANNELS 3 Zrotation Xrotation Yrotation
            End Site
            {
              OFFSET 0 18.4281 -6.07733
            }
          }
        }
        JOINT RightShoulder
        {
          OFFSET -4.1327 10.5992 -0.575451
          CHANNELS 3 Zrotation Xrotation Yrotation
          JOINT RightArm
          {
            OFFSET 0 13.9018 0
            CHANNELS 3 Zrotation Xrotation Yrotation
            JOINT RightArmRoll
            {
              OFFSET 0 7.01788 0
              CHANNELS 3 Zrotation Xrotation Yrotation
              JOINT RightForeArm
              {
                OFFSET 0 20.4406 0
                CHANNELS 3 Zrotation Xrotation Yrotation
                JOINT RightForeArmRoll
                {
                  OFFSET 0 7.87515 0
                  CHANNELS 3 Zrotation Xrotation Yrotation
                  JOINT RightHand
                  {
                    OFFSET 0 15.8037 0
                    CHANNELS 3 Zrotation Xrotation Yrotation
                    End Site
                    {
                      OFFSET 0 0 0
                    }
                  }
                }
              }
            }
          }
        }
        JOINT LeftShoulder
        {
          OFFSET 4.1327 10.5992 -0.575451
          CHANNELS 3 Zrotation Xrotation Yrotation
          JOINT LeftArm
          {
            OFFSET 0 13.9018 0
            CHANNELS 3 Zrotation Xrotation Yrotation
            JOINT LeftArmRoll
            {
              OFFSET 0 7.01789 0
              CHANNELS 3 Zrotation Xrotation Yrotation
              JOINT LeftForeArm
              {
                OFFSET 0 20.4406 0
                CHANNELS 3 Zrotation Xrotation Yrotation
                JOINT LeftForeArmRoll
                {
                  OFFSET 0 7.87516 0
                  CHANNELS 3 Zrotation Xrotation Yrotation
                  JOINT LeftHand
                  {
                    OFFSET 0 15.8037 0
                    CHANNELS 3 Zrotation Xrotation Yrotation
                    End Site
                    {
                      OFFSET 0 0 0
                    }
                  }
                }
              }
            }
          }
        }
      }
    }
  }
  JOINT RightUpLeg
  {
    OFFSET -7.06048 -1.2947 -1.08609
    CHANNELS 3 Zrotation Xrotation Yrotation
    JOINT RightUpLegRoll
    {
      OFFSET 0 18.5308 0
      CHANNELS 3 Zrotation Xrotation Yrotation
      JOINT RightLeg
      {
        OFFSET 0 -22.9476 0
        CHANNELS 3 Zrotation Xrotation Yrotation
        JOINT RightLegRoll
        {
          OFFSET 0 23.0226 0
          CHANNELS 3 Zrotation Xrotation Yrotation
          JOINT RightFoot
          {
            OFFSET 0 19.1625 0
            CHANNELS 3 Zrotation Xrotation Yrotation
            JOINT RightToeBase
            {
              OFFSET 0 16.0188 0
              CHANNELS 3 Zrotation Xrotation Yrotation
              End Site
              {
                OFFSET 0.00678979 7.75782 -0.894206
              }
            }
          }
        }
      }
    }
  }
  JOINT LeftUpLeg
  {
    OFFSET 7.06048 -1.2947 -1.08609
    CHANNELS 3 Zrotation Xrotation Yrotation
    JOINT LeftUpLegRoll
    {
      OFFSET 0 18.5309 0
      CHANNELS 3 Zrotation Xrotation Yrotation
      JOINT LeftLeg
      {
        OFFSET 0 22.9475 0
        CHANNELS 3 Zrotation Xrotation Yrotation
        JOINT LeftLegRoll
        {
          OFFSET 0 23.2355 0
          CHANNELS 3 Zrotation Xrotation Yrotation
          JOINT LeftFoot
          {
            OFFSET 0 18.9496 0
            CHANNELS 3 Zrotation Xrotation Yrotation
            JOINT LeftToeBase
            {
              OFFSET 0 16.0188 0
              CHANNELS 3 Zrotation Xrotation Yrotation
              End Site
              {
                OFFSET -0.0304289 7.75781 -0.894207
              }
            }
          }
        }
      }
    }
  }
}
MOTION
Frames: 11
Frame Time: 0.00208333
53.3698 96.7924 7.91896 -1.27134 -4.57689 -2.70104 0.169033 -0.476901 -0.174661 0.325847 3.04847 -0.368927 0.33072 4.69352 -0.374786 -4.79476 6.83595 -0.383534 6.58914 17.1574 -1.78365 75.017 -4.48099 -3.84011 98.036 21.4927 4.68805 1.1003e-005 5.74642e-007 3.33813e-006 10.6272 17.1014 -2.58977 -7.13593e-006 -9.0436e-006 -3 8.02895 -4.95145 0.697675 -61.1708 -3.45859 2.33721 -109.993 17.7771 0.587605 1.64399e-005 -3.64234e-006 -3.06082e-007 -8.89045 15.4777 2.10526 5.53676e-006 9.00343e-007 3 -8.02907 -4.95144 -0.697671 179.302 -2.20632 1.9266 180 7.0152e-015 178.81 178.671 7.81966 179.56 -2.93912e-006 3.13612e-006 0.106411 -18.7305 67.936 19.5037 8.13063 25.233 -3.48524 -175.177 -2.45043 -1.33977 4.5067e-006 -1.99009e-005 -1.16862 -1.85193 -5.94457 0.0665043 -1.37232e-006 -3.99963e-006 -0.0616627 18.5035 67.718 -19.2904 -8.12969 25.233 3.48484 
53.3782 96.7929 7.91892 -1.27295 -4.56957 -2.70698 0.169813 -0.474042 -0.175834 0.328352 3.05418 -0.371443 0.333256 4.69923 -0.377343 -4.80916 6.82251 -0.383125 6.60047 17.1473 -1.78579 74.9961 -4.48261 -3.83953 98.0402 21.4645 4.68589 1.1003e-005 5.74642e-007 3.33813e-006 10.6314 17.1159 -2.59178 -7.13593e-006 -9.0436e-006 -3 8.02895 -4.95145 0.697675 -61.1763 -3.45184 2.33367 -109.974 17.7062 0.545055 1.64399e-005 -3.64234e-006 -3.06082e-007 -8.87344 15.5958 2.11444 5.53676e-006 9.00343e-007 3 -8.02907 -4.95144 -0.697671 179.309 -2.18973 1.9179 180 7.0152e-015 178.81 178.677 7.83775 179.559 -2.93912e-006 3.13612e-006 0.106398 -18.7274 67.9322 19.5003 8.13063 25.233 -3.48524 -175.172 -2.43062 -1.34697 4.5067e-006 -1.99009e-005 -1.16862 -1.85727 -5.97135 0.0663578 -1.37232e-006 -3.99963e-006 -0.0619769 18.5058 67.7208 -19.2928 -8.12969 25.233 3.48484 
53.3764 96.7923 7.92931 -1.27454 -4.56246 -2.71276 0.170569 -0.471228 -0.176996 0.330841 3.0598 -0.373936 0.335777 4.70485 -0.379877 -4.82347 6.80955 -0.382842 6.612 17.1374 -1.78807 74.9756 -4.48422 -3.83897 98.0442 21.4365 4.68375 1.1003e-005 5.74642e-007 3.33813e-006 10.6356 17.1296 -2.5937 -7.13593e-006 -9.0436e-006 -3 8.02895 -4.95145 0.697675 -61.1819 -3.44425 2.32964 -109.957 17.6354 0.499996 1.64399e-005 -3.64234e-006 -3.06082e-007 -8.85432 15.713 2.12324 5.53676e-006 9.00343e-007 3 -8.02907 -4.95144 -0.697671 179.316 -2.17404 1.90968 180 7.0152e-015 178.81 178.683 7.85467 179.558 -2.93912e-006 3.13612e-006 0.106379 -18.7243 67.9285 19.497 8.13063 25.233 -3.48524 -175.166 -2.41128 -1.35434 4.5067e-006 -1.99009e-005 -1.16863 -1.86277 -5.99768 0.0661924 -1.37232e-006 -3.99963e-006 -0.0622728 18.508 67.7235 -19.2952 -8.12969 25.233 3.48484 
53.3788 96.7961 7.93013 -1.27613 -4.5555 -2.71842 0.171308 -0.468443 -0.17815 0.333321 3.06536 -0.376414 0.338287 4.71041 -0.382395 -4.83772 6.79694 -0.382646 6.62366 17.1276 -1.79047 74.9554 -4.48584 -3.83843 98.0481 21.4087 4.68163 1.1003e-005 5.74642e-007 3.33813e-006 10.64 17.1426 -2.59555 -7.13593e-006 -9.0436e-006 -3 8.02895 -4.95145 0.697675 -61.1875 -3.43606 2.32525 -109.939 17.5647 0.453195 1.64399e-005 -3.64234e-006 -3.06082e-007 -8.83372 15.8296 2.13179 5.53676e-006 9.00343e-007 3 -8.02907 -4.95144 -0.697671 179.323 -2.15898 1.9018 180 7.0152e-015 178.81 178.688 7.87085 179.558 -2.93912e-006 3.13612e-006 0.106355 -18.7212 67.9248 19.4937 8.13063 25.233 -3.48524 -175.161 -2.39227 -1.36182 4.5067e-006 -1.99009e-005 -1.16863 -1.86838 -6.0237 0.0660138 -1.37232e-006 -3.99963e-006 -0.0625559 18.5102 67.7262 -19.2977 -8.12969 25.233 3.48484 
53.3772 96.7922 7.91815 -1.27771 -4.54862 -2.72401 0.172037 -0.465676 -0.1793 0.335794 3.07089 -0.378882 0.340791 4.71594 -0.384903 -4.85193 6.78453 -0.382501 6.63541 17.1178 -1.79293 74.9352 -4.48747 -3.83789 98.052 21.381 4.67951 1.1003e-005 5.74642e-007 3.33813e-006 10.6443 17.1552 -2.59736 -7.13593e-006 -9.0436e-006 -3 8.02895 -4.95145 0.697675 -61.1932 -3.42754 2.32067 -109.922 17.494 0.405414 1.64399e-005 -3.64234e-006 -3.06082e-007 -8.81229 15.9459 2.1402 5.53676e-006 9.00343e-007 3 -8.02907 -4.95144 -0.697671 179.329 -2.14429 1.89412 180 7.0152e-015 178.81 178.694 7.88656 179.557 -2.93912e-006 3.13612e-006 0.106328 -18.7181 67.9212 19.4903 8.13063 25.233 -3.48524 -175.156 -2.37345 -1.36936 4.5067e-006 -1.99009e-005 -1.16864 -1.87406 -6.04955 0.0658277 -1.37232e-006 -3.99963e-006 -0.0628318 18.5124 67.729 -19.3 -8.12969 25.233 3.48484 
53.3771 96.7925 7.92389 -1.27929 -4.54177 -2.72958 0.172764 -0.462914 -0.180449 0.338267 3.0764 -0.381348 0.343294 4.72145 -0.387409 -4.86614 6.77216 -0.382369 6.64717 17.1081 -1.7954 74.9152 -4.48909 -3.83736 98.0559 21.3534 4.67739 1.1003e-005 5.74642e-007 3.33813e-006 10.6487 17.1677 -2.59916 -7.13593e-006 -9.0436e-006 -3 8.02895 -4.95145 0.697675 -61.1988 -3.41892 2.31604 -109.905 17.4233 0.357417 1.64399e-005 -3.64234e-006 -3.06082e-007 -8.79069 16.062 2.1486 5.53676e-006 9.00343e-007 3 -8.02907 -4.95144 -0.697671 179.336 -2.12968 1.88648 180 7.0152e-015 178.81 178.699 7.90216 179.556 -2.93912e-006 3.13612e-006 0.106301 -18.715 67.9175 19.487 8.13063 25.233 -3.48524 -175.15 -2.35467 -1.37692 4.5067e-006 -1.99009e-005 -1.16865 -1.87975 -6.07535 0.0656397 -1.37232e-006 -3.99963e-006 -0.0631058 18.5147 67.7317 -19.3024 -8.12969 25.233 3.48484 
53.3775 96.7938 7.92669 -1.28087 -4.53487 -2.73518 0.173495 -0.460143 -0.1816 0.340743 3.08194 -0.383818 0.345801 4.72699 -0.38992 -4.88036 6.7597 -0.382211 6.6589 17.0983 -1.79784 74.895 -4.49072 -3.83683 98.0598 21.3257 4.67527 1.1003e-005 5.74642e-007 3.33813e-006 10.653 17.1804 -2.60098 -7.13593e-006 -9.0436e-006 -3 8.02895 -4.95145 0.697675 -61.2044 -3.41048 2.31151 -109.888 17.3526 0.309966 1.64399e-005 -3.64234e-006 -3.06082e-007 -8.76955 16.1784 2.15709 5.53676e-006 9.00343e-007 3 -8.02907 -4.95144 -0.697671 179.342 -2.11489 1.87875 180 7.0152e-015 178.81 178.705 7.91798 179.556 -2.93912e-006 3.13612e-006 0.106275 -18.712 67.9138 19.4837 8.13063 25.233 -3.48524 -175.145 -2.3358 -1.38445 4.5067e-006 -1.99009e-005 -1.16865 -1.88541 -6.10123 0.0654554 -1.37232e-006 -3.99963e-006 -0.0633835 18.5169 67.7344 -19.3048 -8.12969 25.233 3.48484 
53.3641 96.7944 7.92299 -1.28245 -4.52786 -2.74088 0.17424 -0.45735 -0.182757 0.343227 3.08752 -0.3863 0.348316 4.73257 -0.392443 -4.89463 6.74699 -0.381991 6.67052 17.0884 -1.8002 74.8747 -4.49234 -3.83628 98.0637 21.2979 4.67315 1.1003e-005 5.74642e-007 3.33813e-006 10.6573 17.1936 -2.60285 -7.13593e-006 -9.0436e-006 -3 8.02895 -4.95145 0.697675 -61.21 -3.40246 2.30723 -109.871 17.2818 0.26382 1.64399e-005 -3.64234e-006 -3.06082e-007 -8.74953 16.2951 2.16579 5.53676e-006 9.00343e-007 3 -8.02907 -4.95144 -0.697671 179.349 -2.09965 1.87078 180 7.0152e-015 178.81 178.71 7.93438 179.555 -2.93912e-006 3.13612e-006 0.106252 -18.7089 67.9101 19.4804 8.13063 25.233 -3.48524 -175.14 -2.31669 -1.39189 4.5067e-006 -1.99009e-005 -1.16866 -1.89099 -6.12735 0.0652806 -1.37232e-006 -3.99963e-006 -0.0636703 18.5191 67.7371 -19.3073 -8.12969 25.233 3.48484 
53.3623 96.7942 7.93276 -1.28404 -4.52069 -2.7467 0.175003 -0.454522 -0.183922 0.345724 3.09316 -0.388801 0.350844 4.73821 -0.394984 -4.90896 6.73389 -0.38167 6.68198 17.0784 -1.80244 74.8541 -4.49395 -3.83571 98.0678 21.2698 4.67102 1.1003e-005 5.74642e-007 3.33813e-006 10.6616 17.2075 -2.6048 -7.13593e-006 -9.0436e-006 -3 8.02895 -4.95145 0.697675 -61.2156 -3.39512 2.30334 -109.853 17.2109 0.219741 1.64399e-005 -3.64234e-006 -3.06082e-007 -8.73127 16.4126 2.17483 5.53676e-006 9.00343e-007 3 -8.02907 -4.95144 -0.697671 179.356 -2.08369 1.86242 180 7.0152e-015 178.81 178.716 7.95165 179.554 -2.93912e-006 3.13612e-006 0.106235 -18.7058 67.9064 19.477 8.13063 25.233 -3.48524 -175.134 -2.29721 -1.39921 4.5067e-006 -1.99009e-005 -1.16866 -1.89644 -6.15381 0.0651208 -1.37232e-006 -3.99963e-006 -0.0639717 18.5214 67.7398 -19.3097 -8.12969 25.233 3.48484 
53.3675 96.7952 7.9342 -1.28563 -4.5133 -2.75271 0.175795 -0.451646 -0.1851 0.348239 3.09891 -0.391326 0.353391 4.74396 -0.397551 -4.92339 6.72025 -0.381211 6.69322 17.0683 -1.80452 74.833 -4.49556 -3.83512 98.072 21.2415 4.66887 1.1003e-005 5.74642e-007 3.33813e-006 10.6657 17.2224 -2.60686 -7.13593e-006 -9.0436e-006 -3 8.02895 -4.95145 0.697675 -61.2211 -3.38871 2.3 -109.836 17.1399 0.178485 1.64399e-005 -3.64234e-006 -3.06082e-007 -8.71543 16.5311 2.18431 5.53676e-006 9.00343e-007 3 -8.02907 -4.95144 -0.697671 179.363 -2.06674 1.85352 180 7.0152e-015 178.81 178.723 7.97016 179.553 -2.93912e-006 3.13612e-006 0.106224 -18.7026 67.9026 19.4736 8.13063 25.233 -3.48524 -175.129 -2.27722 -1.40635 4.5067e-006 -1.99009e-005 -1.16866 -1.90172 -6.18077 0.0649818 -1.37232e-006 -3.99963e-006 -0.0642931 18.5236 67.7426 -19.3121 -8.12969 25.233 3.48484 
53.3456 96.7927 7.91217 -1.28724 -4.5056 -2.75895 0.17662 -0.44871 -0.186292 0.350777 3.10477 -0.393884 0.35596 4.74982 -0.40015 -4.93795 6.70592 -0.380577 6.70418 17.058 -1.80637 74.8115 -4.49716 -3.83449 98.0763 21.2127 4.66671 1.1003e-005 5.74642e-007 3.33813e-006 10.6697 17.2386 -2.60905 -7.13593e-006 -9.0436e-006 -3 8.02895 -4.95145 0.697675 -61.2265 -3.38349 2.29735 -109.818 17.0688 0.14081 1.64399e-005 -3.64234e-006 -3.06082e-007 -8.70266 16.6508 2.19436 5.53676e-006 9.00343e-007 3 -8.02907 -4.95144 -0.697671 179.371 -2.04853 1.84395 180 7.0152e-015 178.81 178.73 7.99024 179.552 -2.93912e-006 3.13612e-006 0.106223 -18.6994 67.8988 19.4702 8.13063 25.233 -3.48524 -175.124 -2.25657 -1.41326 4.5067e-006 -1.99009e-005 -1.16866 -1.90677 -6.20836 0.0648692 -1.37232e-006 -3.99963e-006 -0.0646401 18.526 67.7455 -19.3146 -8.12969 25.233 3.48484 
